<?xml version="1.0" standalone="no"?><!DOCTYPE svg PUBLIC "-//W3C//DTD SVG 1.1//EN" "http://www.w3.org/Graphics/SVG/1.1/DTD/svg11.dtd"><svg t="1566438496087" class="icon" viewBox="0 0 1024 1024" version="1.1" xmlns="http://www.w3.org/2000/svg" p-id="2309" xmlns:xlink="http://www.w3.org/1999/xlink" width="128" height="128"><defs><style type="text/css"></style></defs><path d="M 929.383 369.48 a 58.2957 58.2957 0 0 0 -4.9264 -116.591 H 859.797 l -42.6955 -165.24 a 77.7961 77.7961 0 0 0 -56.0378 -55.6273 a 993.696 993.696 0 0 0 -500.44 0 a 77.7961 77.7961 0 0 0 -56.0378 55.6273 L 161.891 253.504 H 116.937 a 58.501 58.501 0 0 0 -20.5267 113.512 A 116.386 116.386 0 0 0 38.7307 468.008 v 156.003 a 78.0013 78.0013 0 0 0 59.1168 75.3329 V 738.96 a 41.0533 41.0533 0 0 0 41.0533 41.0533 h 114.539 a 41.0533 41.0533 0 0 0 41.0533 -41.0533 v -36.948 h 432.702 V 738.96 a 41.0533 41.0533 0 0 0 41.0533 41.0533 h 114.744 a 41.0533 41.0533 0 0 0 41.0533 -41.0533 v -39.6165 A 78.0013 78.0013 0 0 0 982.958 624.011 v -156.003 a 116.386 116.386 0 0 0 -53.5746 -98.528 Z m -103.865 235.03 a 78.0013 78.0013 0 1 1 78.8224 -78.0013 a 78.4119 78.4119 0 0 1 -78.8224 78.0013 Z m -629.348 0 a 78.0013 78.0013 0 1 1 78.6171 -78.0013 a 78.4119 78.4119 0 0 1 -78.6171 78.0013 Z M 280.74 106.739 A 942.379 942.379 0 0 1 510.844 78.0013 a 907.484 907.484 0 0 1 230.309 29.5584 l 42.2849 205.267 H 238.25 Z M 449.264 800.54 a 164.213 164.213 0 0 1 -130.96 160.929 a 41.0533 41.0533 0 0 1 -61.58 52.7535 l -61.58 -61.58 a 41.0533 41.0533 0 0 1 0 -57.8852 l 61.58 -61.58 a 41.0533 41.0533 0 0 1 57.8852 0 a 41.0533 41.0533 0 0 1 10.6739 38.7954 A 82.1067 82.1067 0 0 0 367.157 800.54 a 41.0533 41.0533 0 0 1 82.1067 0 Z m 377.896 94.2174 a 41.0533 41.0533 0 0 1 0 57.8852 l -61.58 61.58 a 41.0533 41.0533 0 0 1 -61.58 -52.7535 A 164.213 164.213 0 0 1 572.424 800.54 a 41.0533 41.0533 0 0 1 82.1067 0 a 82.1067 82.1067 0 0 0 42.4902 71.4328 a 41.0533 41.0533 0 0 1 10.6739 -38.7954 a 41.0533 41.0533 0 0 1 57.8852 0 Z" p-id="2310"></path></svg>