<?xml version="1.0" standalone="no"?><!DOCTYPE svg PUBLIC "-//W3C//DTD SVG 1.1//EN" "http://www.w3.org/Graphics/SVG/1.1/DTD/svg11.dtd"><svg t="1561513344983" class="icon" viewBox="0 0 1077 1024" version="1.1" xmlns="http://www.w3.org/2000/svg" p-id="2002" xmlns:xlink="http://www.w3.org/1999/xlink" width="67.3125" height="64"><defs><style type="text/css"></style></defs><path d="M896.269474 450.398316A350.315789 350.315789 0 0 0 485.591579 969.027368H381.251368V970.105263H208.195368a69.470316 69.470316 0 0 1-69.200842-69.308631V450.398316H0.538947v-37.510737L485.052632 0l484.513684 412.833684v37.564632h-73.296842z" p-id="2003"></path><path d="M822.972632 858.812632a92.16 92.16 0 0 1-76.314948-22.420211 76.530526 76.530526 0 0 1-24.252631-70.386526c5.820632-33.306947 35.031579-60.254316 71.141052-65.751579a92.106105 92.106105 0 0 1 76.530527 22.366316c20.102737 18.539789 29.103158 44.894316 24.252631 70.602105-6.036211 33.414737-35.193263 60.200421-71.302737 65.589895m204.638316-51.846737l41.121684-23.713684a16.168421 16.168421 0 0 0 8.084211-17.785264l-20.156632-81.488842a17.569684 17.569684 0 0 0-15.629473-12.826947l-48.289685-4.904421a18.378105 18.378105 0 0 1-12.18021-6.197895l-8.084211-9.377684a15.791158 15.791158 0 0 1-3.772631-12.288l5.497263-44.409263a16.545684 16.545684 0 0 0-10.078316-16.976842l-81.596631-36.217264a19.402105 19.402105 0 0 0-20.695579 3.233685l-34.277053 31.63621a18.970947 18.970947 0 0 1-12.826947 4.958316h-12.934737a18.917053 18.917053 0 0 1-12.826948-4.958316l-34.223158-31.63621a19.186526 19.186526 0 0 0-20.695578-3.233685l-81.542737 36.217264a16.491789 16.491789 0 0 0-10.132211 16.976842l5.551158 44.463158a15.845053 15.845053 0 0 1-3.772632 12.288l-8.08421 9.269894a18.378105 18.378105 0 0 1-12.126316 6.144l-48.289684 5.012211a17.623579 17.623579 0 0 0-15.629474 12.826947l-20.210526 81.381053a16.168421 16.168421 0 0 0 8.08421 17.893053l41.06779 23.713684c4.096 2.371368 7.006316 6.144 8.08421 10.455579l2.856422 11.695158a15.629474 15.629474 0 0 1-2.317474 12.611368l-25.869474 37.834105a15.629474 15.629474 0 0 0 1.13179 19.294316l56.535579 65.212632c4.796632 5.605053 12.880842 7.706947 20.102736 5.389473l45.810527-14.821052a19.402105 19.402105 0 0 1 13.797052 0.700631l11.695158 5.12c4.311579 1.940211 7.653053 5.389474 9.162106 9.593263l16.006736 42.199579a18.108632 18.108632 0 0 0 17.030737 11.210106h90.543158c7.760842 0 14.551579-4.527158 17.084632-11.210106L886.568421 970.105263a17.354105 17.354105 0 0 1 9.216-9.593263l11.641263-5.12a19.402105 19.402105 0 0 1 13.850948-0.700632l45.810526 14.821053a18.970947 18.970947 0 0 0 20.102737-5.389474l56.481684-65.212631a15.737263 15.737263 0 0 0 1.185684-19.294316l-25.869474-37.834105a15.629474 15.629474 0 0 1-2.371368-12.611369l2.856421-11.641263a17.192421 17.192421 0 0 1 8.138105-10.509474" p-id="2004"></path></svg>