<?xml version="1.0" standalone="no"?><!DOCTYPE svg PUBLIC "-//W3C//DTD SVG 1.1//EN" "http://www.w3.org/Graphics/SVG/1.1/DTD/svg11.dtd"><svg t="1562847235328" class="icon" viewBox="0 0 1024 1024" version="1.1" xmlns="http://www.w3.org/2000/svg" p-id="6574" xmlns:xlink="http://www.w3.org/1999/xlink" width="200" height="200"><defs><style type="text/css"></style></defs><path d="M887.883 88h-751.76C95.176 88 62 121.342 62 162.475v698.103c0 41.142 33.187 74.478 74.122 74.478h54.718c9.78 0 18.893-4.434 25.056-11.977l179.927-224.143 82.134 68.112c13.13 10.906 32.422 9.559 44.08-2.955l240.638-283.279-6.735 59.74c0 17.842 14.396 32.308 32.153 32.308 17.757 0 32.154-14.465 32.154-32.308l16.016-142.06c0.43-2.005 0.661-4.083 0.7-6.208l0.03-0.269c0-0.056-0.008-0.11-0.01-0.168 0-0.056 0.01-0.11 0.01-0.167 0-17.842-14.395-32.308-32.153-32.308L657.014 376.2c-17.757 0-32.154 14.465-32.154 32.308 0 17.842 14.396 32.308 32.154 32.308l60.444-6.881-221.95 263.785-83.737-69.458c-6.568-5.522-15.144-8.079-23.715-7.269-8.577 0.8-16.348 5.114-21.844 11.845l-190.21 237.057h-12.093c-20.468 0-37.065-16.657-37.065-37.243V190.404c0-20.57 16.583-37.244 37.065-37.244h696.173c20.471 0 37.072 16.663 37.072 37.244v642.248c0 20.57-16.584 37.243-37.072 37.243H526.06c-17.908 0-32.426 14.586-32.426 32.582 0 17.996 14.516 32.582 32.426 32.582h361.821c40.94 0 74.119-33.347 74.119-74.478V162.477c0-41.136-33.187-74.474-74.119-74.474l0.002-0.003z" p-id="6575" fill="#666666"></path></svg>