<?xml version="1.0" standalone="no"?><!DOCTYPE svg PUBLIC "-//W3C//DTD SVG 1.1//EN" "http://www.w3.org/Graphics/SVG/1.1/DTD/svg11.dtd"><svg t="1563261294997" class="icon" viewBox="0 0 1024 1024" version="1.1" xmlns="http://www.w3.org/2000/svg" p-id="3123" xmlns:xlink="http://www.w3.org/1999/xlink" width="128" height="128"><defs><style type="text/css"></style></defs><path d="M521.5466666666666 115.25333333333333C283.14666666666665 115.25333333333333 92.53333333333336 278.1333333333333 92.53333333333336 476.7466666666666c0 105.06666666666666 53.333333333333336 202.45333333333335 145.06666666666666 269.8666666666667 3.6266666666666665 2.6666666666666665 5.653333333333333 7.039999999999999 5.333333333333333 11.520000000000001l-15.36 137.38666666666668c-0.8533333333333334 11.413333333333332 12.373333333333333 18.346666666666664 21.333333333333332 11.2l152.64-76.69333333333334c2.9866666666666664-2.3466666666666667 6.933333333333334-3.3066666666666666 10.666666666666666-2.56 37.333333333333336 7.1466666666666665 71.57333333333332 10.773333333333333 109.22666666666667 10.773333333333333 238.29333333333332 0 429.0133333333333-162.88 429.0133333333333-361.4933333333333S759.8400000000001 115.25333333333333 521.5466666666666 115.25333333333333m214.93333333333334 472.1066666666667c-0.32 0.32-0.64 0.7466666666666666-0.96 1.1733333333333333-47.68 71.14666666666668-122.98666666666668 110.61333333333333-206.07999999999998 110.61333333333333-83.2 0-162.34666666666666-39.46666666666667-206.07999999999998-110.50666666666666-0.32-0.4266666666666667-0.5333333333333333-0.8533333333333334-0.7466666666666666-1.3866666666666667-3.6266666666666665-7.8933333333333335-3.4133333333333336-19.413333333333334 4.266666666666667-27.09333333333333 7.573333333333332-7.573333333333332 18.88-4.266666666666667 26.773333333333333 2.9866666666666664 0.64 0.64 1.28 1.3866666666666667 1.8133333333333332 2.1333333333333333 39.78666666666666 58.88 102.93333333333334 90.24 173.97333333333333 90.24 71.46666666666667 0 135.04-35.733333333333334 174.72-95.36 3.5199999999999996-6.933333333333334 17.279999999999998-11.093333333333334 24.426666666666666-7.466666666666667 1.92 0.96 5.653333333333333 2.453333333333333 7.253333333333333 3.9466666666666668 11.413333333333332 9.813333333333333 7.466666666666667 23.253333333333334 0.64 30.72" p-id="3124"></path></svg>