<?xml version="1.0" standalone="no"?><!DOCTYPE svg PUBLIC "-//W3C//DTD SVG 1.1//EN" "http://www.w3.org/Graphics/SVG/1.1/DTD/svg11.dtd"><svg t="1561775394525" class="icon" viewBox="0 0 1024 1024" version="1.1" xmlns="http://www.w3.org/2000/svg" p-id="18384" xmlns:xlink="http://www.w3.org/1999/xlink" width="128" height="128"><defs><style type="text/css"></style></defs><path d="M891.904 478.208H223.232l198.656-198.656c13.312-13.312 13.312-34.816 0-48.128a33.9968 33.9968 0 0 0-48.128 0l-256 256s-1.024 0-1.024 1.024c-3.072 3.072-6.144 7.168-7.168 11.264v1.024c-1.024 4.096-2.048 8.192-2.048 12.288 0 4.096 1.024 8.192 2.048 12.288v1.024c2.048 4.096 4.096 8.192 7.168 11.264l257.024 257.024c13.312 13.312 34.816 13.312 48.128 0 13.312-13.312 13.312-34.816 0-48.128L223.232 546.816h668.672c18.432 0 33.792-15.36 33.792-33.792 0-19.456-15.36-34.816-33.792-34.816z" p-id="18385"></path></svg>