<?xml version="1.0" standalone="no"?><!DOCTYPE svg PUBLIC "-//W3C//DTD SVG 1.1//EN" "http://www.w3.org/Graphics/SVG/1.1/DTD/svg11.dtd"><svg t="1562547240612" class="icon" viewBox="0 0 1024 1024" version="1.1" xmlns="http://www.w3.org/2000/svg" p-id="2066" xmlns:xlink="http://www.w3.org/1999/xlink" width="128" height="128"><defs><style type="text/css"></style></defs><path d="M947.2 162.909091H76.8C48.872727 162.909091 25.6 186.181818 25.6 211.781818v598.109091c0 27.927273 23.272727 48.872727 48.872727 48.872727h872.727273c27.927273 0 48.872727-23.272727 48.872727-48.872727V211.781818C998.4 186.181818 975.127273 162.909091 947.2 162.909091z m-465.454545 539.927273c0 6.981818-2.327273 11.636364-4.654546 13.963636-2.327273 2.327273-4.654545 4.654545-11.636364 6.981818-6.981818 2.327273-13.963636 4.654545-25.6 4.654546-23.272727 4.654545-46.545455 6.981818-67.490909 9.309091-11.636364 0-23.272727 2.327273-34.909091 2.327272h-60.50909c-11.636364 0-23.272727-2.327273-34.909091-2.327272s-23.272727-2.327273-34.909091-2.327273-20.945455-2.327273-32.581818-4.654546c-9.309091-2.327273-18.618182-2.327273-25.6-4.654545-4.654545-4.654545-6.981818-4.654545-9.309091-6.981818-2.327273-2.327273-4.654545-9.309091-6.981819-20.945455-2.327273-11.636364-2.327273-27.927273 2.327273-46.545454 2.327273-9.309091 4.654545-18.618182 11.636364-23.272728 6.981818-4.654545 16.290909-9.309091 25.6-13.963636 9.309091-2.327273 18.618182-6.981818 30.254545-9.309091 9.309091-2.327273 18.618182-6.981818 25.6-11.636364 6.981818-4.654545 11.636364-6.981818 13.963637-11.636363 2.327273-2.327273 4.654545-6.981818 6.981818-9.309091 2.327273-2.327273 2.327273-6.981818 2.327273-11.636364v-11.636363c0-6.981818-2.327273-11.636364-6.981819-16.290909-4.654545-4.654545-9.309091-6.981818-13.963636-11.636364-2.327273-2.327273-4.654545-4.654545-6.981818-9.309091-2.327273-4.654545-2.327273-6.981818-4.654546-11.636364s-2.327273-9.309091-4.654545-13.963636c-2.327273 0-4.654545-2.327273-6.981818-2.327273-2.327273-2.327273-2.327273-2.327273-4.654546-6.981818-2.327273-2.327273-4.654545-6.981818-4.654545-11.636364-2.327273-4.654545-2.327273-9.309091-2.327273-13.963636 0-4.654545 2.327273-6.981818 2.327273-9.309091 2.327273-2.327273 2.327273-6.981818 4.654545-9.309091 0-11.636364 0-20.945455 2.327273-32.581818 2.327273-6.981818 4.654545-18.618182 6.981818-27.927273 2.327273-9.309091 6.981818-20.945455 13.963637-27.927272 4.654545-9.309091 11.636364-13.963636 18.618181-20.945455 6.981818-4.654545 13.963636-9.309091 20.945455-11.636364l20.945454-6.981818c6.981818 0 13.963636-2.327273 20.945455-2.327272 16.290909 0 32.581818 4.654545 46.545455 11.636363 13.963636 6.981818 23.272727 13.963636 30.254545 23.272727 6.981818 9.309091 13.963636 18.618182 16.290909 30.254546 4.654545 11.636364 6.981818 20.945455 6.981818 32.581818 2.327273 11.636364 2.327273 23.272727 2.327273 34.909091l4.654545 4.654545c0 2.327273 2.327273 4.654545 2.327273 6.981819v11.636363c0 6.981818-2.327273 11.636364-4.654545 13.963637-2.327273 4.654545-4.654545 6.981818-6.981818 9.309091-2.327273 2.327273-4.654545 4.654545-9.309091 4.654545-2.327273 4.654545-2.327273 9.309091-4.654546 13.963636-2.327273 4.654545-2.327273 6.981818-4.654545 11.636364s-4.654545 6.981818-6.981818 9.309091l-6.981819 6.981818c-2.327273 2.327273-4.654545 2.327273-6.981818 4.654546-2.327273 2.327273-2.327273 4.654545-4.654545 6.981818-2.327273 2.327273-2.327273 4.654545-2.327273 9.309091v13.963636c0 4.654545 2.327273 9.309091 2.327273 13.963636 2.327273 4.654545 4.654545 9.309091 9.309091 11.636364 4.654545 4.654545 11.636364 6.981818 18.618181 11.636364 6.981818 2.327273 13.963636 4.654545 23.272728 6.981818 9.309091 2.327273 16.290909 4.654545 25.6 6.981818 6.981818 2.327273 13.963636 6.981818 20.945454 11.636364 6.981818 4.654545 11.636364 11.636364 13.963637 18.618181 2.327273 4.654545 2.327273 11.636364 2.327272 16.29091 0 6.981818 2.327273 13.963636 2.327273 20.945454 4.654545 6.981818 4.654545 13.963636 4.654546 20.945455z m386.327272-39.563637H595.781818c-11.636364 0-23.272727-9.309091-23.272727-23.272727 0-11.636364 9.309091-23.272727 23.272727-23.272727h274.618182c11.636364 0 23.272727 9.309091 23.272727 23.272727-2.327273 13.963636-11.636364 23.272727-25.6 23.272727z m0-134.981818H595.781818c-11.636364 0-23.272727-9.309091-23.272727-23.272727 0-11.636364 9.309091-23.272727 23.272727-23.272727h274.618182c11.636364 0 23.272727 9.309091 23.272727 23.272727-2.327273 11.636364-11.636364 23.272727-25.6 23.272727z m0-137.309091H595.781818c-11.636364 0-23.272727-9.309091-23.272727-23.272727 0-11.636364 9.309091-23.272727 23.272727-23.272727h274.618182c11.636364 0 23.272727 9.309091 23.272727 23.272727-2.327273 11.636364-11.636364 23.272727-25.6 23.272727z m0 0" p-id="2067"></path></svg>