<?xml version="1.0" standalone="no"?><!DOCTYPE svg PUBLIC "-//W3C//DTD SVG 1.1//EN" "http://www.w3.org/Graphics/SVG/1.1/DTD/svg11.dtd"><svg t="1562635916180" class="icon" viewBox="0 0 1097 1024" version="1.1" xmlns="http://www.w3.org/2000/svg" p-id="3568" xmlns:xlink="http://www.w3.org/1999/xlink" width="137.125" height="128"><defs><style type="text/css"></style></defs><path d="M932.571429 36.571429h-768A90.697143 90.697143 0 0 0 73.142857 128v581.485714A91.428571 91.428571 0 0 0 164.571429 804.571429h157.257142v131.657142a50.102857 50.102857 0 0 0 51.2 51.2 65.097143 65.097143 0 0 0 36.571429-14.628571l168.228571-168.228571h351.085715a90.697143 90.697143 0 0 0 91.428571-91.428572v-585.142857A85.577143 85.577143 0 0 0 932.571429 36.571429z m-270.628572 541.257142H266.971429a47.542857 47.542857 0 0 1 0-95.085714h394.971428a47.542857 47.542857 0 0 1 0 95.085714z m168.228572-219.428571H266.971429A46.08 46.08 0 0 1 219.428571 310.857143a48.274286 48.274286 0 0 1 47.542858-47.542857h563.2A48.274286 48.274286 0 0 1 877.714286 310.857143a46.08 46.08 0 0 1-47.542857 47.542857z" p-id="3569"></path></svg>