<?xml version="1.0" standalone="no"?><!DOCTYPE svg PUBLIC "-//W3C//DTD SVG 1.1//EN" "http://www.w3.org/Graphics/SVG/1.1/DTD/svg11.dtd"><svg t="1568691605823" class="icon" viewBox="0 0 1024 1024" version="1.1" xmlns="http://www.w3.org/2000/svg" p-id="1275" xmlns:xlink="http://www.w3.org/1999/xlink" width="200" height="200"><defs><style type="text/css"></style></defs><path d="M608 560.4H376.3c-13.3 0-24.2-10.8-24.2-24.2 0-13.3 10.8-24.2 24.2-24.2H608c13.3 0 24.2 10.8 24.2 24.2 0 13.4-10.8 24.2-24.2 24.2zM686.1 709.8H454.4c-13.3 0-24.2-10.8-24.2-24.2 0-13.3 10.8-24.2 24.2-24.2h231.7c13.3 0 24.2 10.8 24.2 24.2-0.1 13.4-10.9 24.2-24.2 24.2z" fill="#333333" p-id="1276"></path><path d="M619.2 960.7h-377c-65.2 0-118.2-53-118.2-118.3V182.7c0-65.2 53-118.3 118.2-118.3h518.4c65.2 0 118.2 53 118.2 118.3v109.8c0 35.2-13.5 65-38.9 86.1-24.9 20.6-60.5 31.6-102.9 31.6H454.2c-13.3 0-24-10.7-24-24s10.7-24 24-24H737c31.1 0 56-7.1 72.3-20.5 14.3-11.9 21.6-28.4 21.6-49.2V182.7c0-38.7-31.5-70.3-70.2-70.3H242.3c-38.7 0-70.2 31.5-70.2 70.3v659.7c0 38.7 31.5 70.3 70.2 70.3h377c116.7 0 211.6-94.9 211.6-211.6V533.7c0-18.3 8-36.6 22-50.3 13.6-13.3 31.5-20.9 49.2-20.9 13.3 0 24 10.7 24 24s-10.7 24-24 24c-10.2 0-23.1 10.9-23.1 23.1V701c0 69.3-27 134.5-76 183.6-49.3 49.1-114.5 76.1-183.8 76.1z" fill="#333333" p-id="1277"></path></svg>