<?xml version="1.0" standalone="no"?><!DOCTYPE svg PUBLIC "-//W3C//DTD SVG 1.1//EN" "http://www.w3.org/Graphics/SVG/1.1/DTD/svg11.dtd"><svg t="1561513918696" class="icon" viewBox="0 0 1024 1024" version="1.1" xmlns="http://www.w3.org/2000/svg" p-id="2756" xmlns:xlink="http://www.w3.org/1999/xlink" width="64" height="64"><defs><style type="text/css"></style></defs><path d="M457.49467 63.906218c51.252787 0 99.374168 19.93874 135.608994 56.109659a192.038184 192.038184 0 0 1 0 271.154081A190.440529 190.440529 0 0 1 457.49467 447.343523a190.440529 190.440529 0 0 1-135.545088-56.173565A190.440529 190.440529 0 0 1 265.839923 255.624871c0-51.252787 19.93874-99.374168 56.045753-135.545088A190.696153 190.696153 0 0 1 457.49467 63.906218m0-63.906218C392.054703 0 326.678642 24.923425 276.767886 74.834181A255.752683 255.752683 0 0 0 457.49467 511.249741a255.560964 255.560964 0 1 0 0-511.249741zM862.212746 564.48362c25.626393 0 49.655131 9.96937 67.804497 28.05483 18.149366 18.149366 28.118736 42.178104 28.118736 67.804497s-9.96937 49.655131-28.118736 67.804497a95.220264 95.220264 0 0 1-67.804497 28.054829c-25.562487 0-49.655131-9.96937-67.804497-28.118736-18.08546-18.021553-27.990923-42.114197-27.990923-67.74059s9.905464-49.719037 27.990923-67.804497a95.475889 95.475889 0 0 1 67.804497-28.05483m0-63.906217a159.765544 159.765544 0 1 0 0 319.467182 159.765544 159.765544 0 0 0 0-319.467182z" p-id="2757"></path><path d="M626.526615 379.347308l180.79069 180.726783-45.181696 45.245602-180.854596-180.726783zM225.067756 638.99827c21.919833 0 43.392322 4.473435 63.842312 13.3564a158.679138 158.679138 0 0 1 84.867457 87.934955 159.957263 159.957263 0 0 1-212.55208 205.011146c-39.174511-17.06296-69.27434-48.313101-84.931363-87.998862s-14.762336-83.141989 2.236717-122.252594a159.765544 159.765544 0 0 1 146.536957-96.051045m-0.063906-63.906218c-86.273394 0-168.392883 50.230287-205.011146 134.458682a223.607855 223.607855 0 1 0 410.086198 178.553972 223.671762 223.671762 0 0 0-205.075052-313.012654z" p-id="2758"></path><path d="M267.948828 620.273748l76.559649-175.742098 58.602002 25.498581-76.559649 175.742098z" p-id="2759"></path></svg>