<?xml version="1.0" standalone="no"?><!DOCTYPE svg PUBLIC "-//W3C//DTD SVG 1.1//EN" "http://www.w3.org/Graphics/SVG/1.1/DTD/svg11.dtd"><svg t="1561775098377" class="icon" viewBox="0 0 1024 1024" version="1.1" xmlns="http://www.w3.org/2000/svg" p-id="9423" xmlns:xlink="http://www.w3.org/1999/xlink" width="128" height="128"><defs><style type="text/css"></style></defs><path d="M511.872 859.477333c-186.112 0-338.346667-155.690667-338.346667-345.984 0-16.128 12.373333-28.842667 28.16-28.842666 15.786667 0 28.202667 12.714667 28.202667 28.842666 0 159.146667 126.336 288.341333 282.026667 288.341334a278.912 278.912 0 0 0 206.378666-92.288 26.88 26.88 0 0 1 39.466667-1.152c11.264 11.52 12.373333 28.842667 1.109333 40.362666a332.970667 332.970667 0 0 1-246.997333 110.72z m310.186667-317.141333a28.245333 28.245333 0 0 1-28.202667-28.842667c0-159.146667-126.293333-288.341333-281.984-288.341333a276.053333 276.053333 0 0 0-204.16 89.984 27.818667 27.818667 0 0 1-39.466667 1.152 29.397333 29.397333 0 0 1-1.109333-40.362667 331.434667 331.434667 0 0 1 245.888-107.264c186.069333 0 338.346667 155.690667 338.346667 346.026667a29.781333 29.781333 0 0 1-29.312 27.648z" p-id="9424"></path><path d="M106.965333 513.493333l94.72-129.152 94.762667 129.152h-189.44z m809.813334 0l-94.72 129.194667-94.72-129.194667h189.44z" p-id="9425"></path></svg>