<?xml version="1.0" standalone="no"?><!DOCTYPE svg PUBLIC "-//W3C//DTD SVG 1.1//EN" "http://www.w3.org/Graphics/SVG/1.1/DTD/svg11.dtd"><svg t="1561775252860" class="icon" viewBox="0 0 1024 1024" version="1.1" xmlns="http://www.w3.org/2000/svg" p-id="13064" xmlns:xlink="http://www.w3.org/1999/xlink" width="128" height="128"><defs><style type="text/css"></style></defs><path d="M252.76928 299.904l146.2784 0 0 472.42752-146.2784 0 0-472.42752Z" p-id="13065"></path><path d="M477.48096 85.34528l70.87104 0 0 885.80608-70.87104 0 0-885.80608Z" p-id="13066"></path><path d="M629.80096 284.8l31.0016 0 0 502.88128-31.0016 0L629.80096 284.8zM776.42752 284.8l31.0016 0 0 502.88128-31.0016 0L776.42752 284.8zM657.09056 315.8016l0-31.0016 123.04896 0 0 31.0016L657.09056 315.8016zM657.27488 787.64544l0-31.0016 123.04896 0 0 31.0016L657.27488 787.64544z" p-id="13067"></path></svg>