<?xml version="1.0" standalone="no"?><!DOCTYPE svg PUBLIC "-//W3C//DTD SVG 1.1//EN" "http://www.w3.org/Graphics/SVG/1.1/DTD/svg11.dtd"><svg t="1561775294151" class="icon" viewBox="0 0 1024 1024" version="1.1" xmlns="http://www.w3.org/2000/svg" p-id="14423" xmlns:xlink="http://www.w3.org/1999/xlink" width="128" height="128"><defs><style type="text/css"></style></defs><path d="M739.41 399.11H280.07a32 32 0 0 1-32-32V213.74a32 32 0 0 1 32-32h459.34a32 32 0 0 1 32 32v153.37a32 32 0 0 1-32 32z m-427.34-64h395.34v-89.37H312.07zM280.08 807.69V654.32h459.34v153.37z" p-id="14424"></path><path d="M739.41 839.69H280.07a32 32 0 0 1-32-32V654.32a32 32 0 0 1 32-32h459.34a32 32 0 0 1 32 32v153.37a32 32 0 0 1-32 32z m-427.34-64h395.34v-89.37H312.07zM896.2 542.72H125.85a32 32 0 0 1 0-64H896.2a32 32 0 0 1 0 64z" p-id="14425"></path></svg>